# xmcd CD database file
#
# Track frame offsets:
#	150
#	14362
#	27089
#	38125
#	54046
#	66980
#	81548
#	95490
#	107524
#	113200
#	124431
#	135812
#	149943
#	162214
#	175378
#	190954
#	201460
#	219932
#	230628
#	243188
#	256424
#	273673
#	287925
#	303739
#
# Disc length: 4279 seconds
#
# Revision: 0
# Processed by: cddbd v1.5.2PL0 Copyright (c) Steve Scherf et al.
# Submitted via: CDex 1.70beta2
#
DISCID=6d10b518
DTITLE=Bjarte Leithaug - Kan Vi Være Venner
DYEAR=2003
DGENRE=kid
TTITLE0=Skal vi være venner
TTITLE1=Jeg liker dine store ører
TTITLE2=Ein fin dag i mars
TTITLE3=O-o-oppover
TTITLE4=Drømmedag
TTITLE5=David og Goliat
TTITLE6=Da pappa'n min sov
TTITLE7=Takk forden dagen
TTITLE8=Tusen tanker
TTITLE9=Kåre
TTITLE10=Srell levande
TTITLE11=Fly lille engel
TTITLE12=Menuett
TTITLE13=Noen dager
TTITLE14=Gjett hva jeg ønsker meg
TTITLE15=Skive med sukker på
TTITLE16=Vi suser avgårde
TTITLE17=Jeg vil være med
TTITLE18=Åpen linje
TTITLE19=Si det i dag
TTITLE20=To små fisker
TTITLE21=Vi må være med
TTITLE22=Misjonæren
TTITLE23=På kirkevei
EXTD=YEAR: 2003
EXTT0=
EXTT1=
EXTT2=
EXTT3=
EXTT4=
EXTT5=
EXTT6=
EXTT7=
EXTT8=
EXTT9=
EXTT10=
EXTT11=
EXTT12=
EXTT13=
EXTT14=
EXTT15=
EXTT16=
EXTT17=
EXTT18=
EXTT19=
EXTT20=
EXTT21=
EXTT22=
EXTT23=
PLAYORDER=
